<svg xmlns="http://www.w3.org/2000/svg" viewBox="0 0 1500 1500"><defs><style>.cls-1{fill:#fff;}.cls-2{fill:#262f61;}.cls-3{fill:none;}.cls-4{fill:#ce3524;}</style></defs><g id="Layer_2" data-name="Layer 2"><g id="Layer_10" data-name="Layer 10"><circle class="cls-1" cx="750" cy="750" r="750"/><path class="cls-2" d="M750,1474.64A724.83,724.83,0,0,1,467.93,82.31a724.83,724.83,0,0,1,564.14,1335.38A720.15,720.15,0,0,1,750,1474.64ZM750,59.35c-184.48,0-357.92,71.84-488.36,202.29S59.35,565.52,59.35,750s71.84,357.92,202.29,488.36S565.52,1440.65,750,1440.65s357.92-71.84,488.36-202.29S1440.65,934.48,1440.65,750s-71.84-357.92-202.29-488.36S934.48,59.35,750,59.35Z"/><circle class="cls-3" cx="750" cy="750" r="750"/><g id="layer1"><path id="path260" class="cls-1" d="M1132.52,364c0-40-27-52.11-65.66-62.18C1010.32,287.07,894,262.31,750,262.31S489.65,287,433.11,301.79c-38.63,10.1-65.63,22.2-65.63,62.21V923.94c.5,46.53,22.59,90.71,59.11,118.23L727,1269.91l23,17.45,23.06-17.45,300.47-227.8a149.26,149.26,0,0,0,59-118.58Z"/><path id="path260-2" data-name="path260" class="cls-1" d="M1132.52,364c0-40-27-52.11-65.66-62.18C1010.32,287.07,894,262.31,750,262.31S489.65,287,433.11,301.79c-38.63,10.1-65.63,22.2-65.63,62.21V923.94c.5,46.53,22.59,90.71,59.11,118.23L727,1269.91l23,17.45,23.06-17.45,300.47-227.8a149.26,149.26,0,0,0,59-118.58Z"/><path id="path280" class="cls-2" d="M750,262.3c-144,0-260.34,24.76-316.89,39.51C394.48,311.88,367.49,324,367.49,364V923.93c.47,46.53,22.56,90.71,59.1,118.23L727,1269.9l23,17.45,23.06-17.45,300.47-227.8a149.23,149.23,0,0,0,59-118.55V364c0-40-27-52.11-65.65-62.18C1010.32,287.06,894,262.3,750,262.3Zm-8.37,28.87,9.08,28.06H780.2l-23.85,17.33,9.1,28-23.82-17.33-23.88,17.33,9.11-28L703,319.23h29.5ZM423.06,332.06l9.11,28.06h29.49l-23.85,17.32,9.11,28-23.86-17.33-23.85,17.33,9.11-28-23.85-17.32H414Zm630.32,0,9.11,28.06H1092l-23.85,17.32,9.1,28-23.85-17.33-23.85,17.33,9.11-28-23.85-17.32h29.49Zm-139,47.06c2.79.38,5.55.76,8.29,1.17,8.16,1.15,16.06,2.38,23.7,3.62s15.16,2.55,22.27,3.88L767.75,540.33V435.84c31.63,18.77,53,16.86,66.76,8.11a47.1,47.1,0,0,0,16.66-19.12C885.45,434.9,923.49,413.64,914.41,379.12Zm-368.09,6a40.08,40.08,0,0,0,1.68,8.4c0,.12,0,.24.08.36s.09.2.12.32c8.78,26.7,44.5,40.54,77.4,30.84,6.14,12.46,20.86,23.38,41.39,26.23,13.81,1.91,30.26.12,48.47-7.34V580l-125.75,95.5a72.27,72.27,0,0,0,.67-9.75v-3.91c13.75-8.49,25.88-25,32-45.94a93.78,93.78,0,0,0,3.73-27.11,37.56,37.56,0,0,1-7.72,2.37,53.58,53.58,0,0,1-12.43.91,45.94,45.94,0,0,0,24.2-8.92c1.53-1.3,3.21-2.85,5-4.65a89.22,89.22,0,0,0,22.3-38.95l20.68-72.32A28.9,28.9,0,0,0,651,480.58l-10,15.74-9.78,15.48c-2.2,3.7-6.14,7.05-10.6,9.46-6.88-5.37-12.22-9.6-16.45-12.92-.65-.5-1.26-1-1.85-1.47l-6.52-27.38,9.49-16.92a24.29,24.29,0,0,0,2.7-15.89,25,25,0,0,0-3.79-9.43,5.27,5.27,0,0,0-7.14-1.32l-23.82,15.22a10.54,10.54,0,0,0-2-1.62,6.49,6.49,0,0,0-4.67-.91c-2.41.41-5.08,2-8.23,4.08l-6.08,4.44-9,6.61-6.93-.27-4.81-.2c-4.7,0-6.58,8.46-2.24,14.68,3.62,5.17,6.47,11.87,8.4,20,0,.12.09.24.12.35.12.59.24,1.18.38,1.77s.21.91.3,1.38a130.55,130.55,0,0,1,2.32,25.7c0,21.38-11.52,67.12-26.35,96.94-.71,1.29-1.44,2.58-2.15,3.9l-11.16,18.6c-1.79,2.7-1.38,6.78.74,9.72a8.61,8.61,0,0,0,7.14,3.64s9,11.28,11.77,33a113.14,113.14,0,0,1-1.35,36L498.26,745l-22.44,17,0-362.63c10.78-2.56,23-5.29,36.57-8C522.94,389.28,534.28,387.17,546.32,385.11Zm539.51,59.45-9.59,7.34-20.4,15.61Zm-73.89,56.55v547.56l-104.82,79.46V581.34h0l104.81-80.22Zm-161.51,14,9.11,28H889l-23.85,17.33,9.11,28-23.86-17.33L826.58,588.5l9.11-28-23.85-17.33h29.49ZM423.06,570.79l9.11,28h29.49l-23.85,17.33,9.11,28.06-23.86-17.33-23.85,17.3,9.11-28-23.85-17.33H414ZM660.9,1179.68,444,1015.26l0,0,43.82,33.21V902.25L592.62,822l104.83-80.22,104.83-80.22v546L750,1247.23l-52.54-39.83V741.79L592.62,822v305.9m51.84-464.15,9.13,28h29.47l-23.85,17.33,9.1,28-23.85-17.31-23.85,17.31,9.13-28-23.88-17.33h29.49ZM423.06,823l9.11,28h29.49l-23.85,17.33,9.11,28L423.06,879.1l-23.85,17.31,9.11-28-23.85-17.33H414Z"/><path id="path276" class="cls-4" d="M1100.06,865.14V433.66l-23.82,18.24-64.3,49.2v547.57l44.21-33.51h0a111.6,111.6,0,0,0,43.91-88.36ZM907.12,581.33h0L802.28,661.55V1207.6l104.84-79.46ZM592.62,822h0v305.91l104.84,79.48V741.79ZM487.78,902.24l-39.21,30L407.09,964a108.73,108.73,0,0,0,36.81,51.2h0l43.88,33.25Z"/></g></g></g></svg>