<?xml version="1.0" encoding="utf-8"?>
<!-- Generator: Adobe Illustrator 27.0.1, SVG Export Plug-In . SVG Version: 6.00 Build 0)  -->
<svg version="1.1" id="Слой_1" xmlns="http://www.w3.org/2000/svg" xmlns:xlink="http://www.w3.org/1999/xlink" x="0px" y="0px"
	 viewBox="0 0 266 73" style="enable-background:new 0 0 266 73;" xml:space="preserve">
<style type="text/css">
	.st0{fill:#FFFFFF;}
	.st1{fill:#5CE1E6;}
</style>
<path class="st0" d="M36.1,0C28.9,0,22,2.1,16,6.1S5.5,15.7,2.7,22.3C0,28.9-0.7,36.1,0.7,43.1c1.4,7,4.8,13.4,9.9,18.5
	c5,5,11.5,8.5,18.5,9.9c7,1.4,14.2,0.7,20.8-2.1c6.6-2.7,12.2-7.4,16.2-13.3c4-5.9,6.1-12.9,6.1-20h-18c0,3.6-1.1,7.1-3,10
	c-2,3-4.8,5.3-8.1,6.6c-3.3,1.4-6.9,1.7-10.4,1c-3.5-0.7-6.7-2.4-9.2-4.9c-2.5-2.5-4.2-5.7-4.9-9.2c-0.7-3.5-0.3-7.1,1-10.4
	c1.4-3.3,3.7-6.1,6.6-8.1c3-2,6.5-3,10-3V0z"/>
<path class="st1" d="M36.1,0c-4.7,0-9.4,0.9-13.8,2.7c-4.4,1.8-8.4,4.5-11.7,7.8c-3.3,3.3-6,7.3-7.8,11.7C0.9,26.6,0,31.3,0,36.1h18
	c0-2.4,0.5-4.7,1.4-6.9c0.9-2.2,2.2-4.2,3.9-5.9c1.7-1.7,3.7-3,5.9-3.9c2.2-0.9,4.5-1.4,6.9-1.4V0z"/>
<circle class="st1" cx="36.1" cy="36.1" r="11.3"/>
<path class="st0" d="M47.3,36.1c0-1.5-0.3-2.9-0.9-4.3c-0.6-1.4-1.4-2.6-2.4-3.7c-1-1-2.3-1.9-3.7-2.4s-2.8-0.9-4.3-0.9
	c-1.5,0-2.9,0.3-4.3,0.9c-1.4,0.6-2.6,1.4-3.7,2.4c-1,1-1.9,2.3-2.4,3.7c-0.6,1.4-0.9,2.8-0.9,4.3h11.3H47.3z"/>
<g>
	<g>
		<path class="st0" d="M81.5,30.4V2.7h5.2v27.7H81.5z M83.9,19.7v-5h8.9c0.9,0,1.7-0.3,2.3-0.9c0.6-0.6,0.9-1.5,0.9-2.5
			c0-1.1-0.3-1.9-0.9-2.5c-0.6-0.6-1.3-0.9-2.3-0.9h-8.9v-5h8.7c1.8,0,3.3,0.4,4.6,1.1c1.3,0.7,2.3,1.7,3,3c0.7,1.3,1.1,2.8,1.1,4.5
			c0,1.7-0.4,3.2-1.1,4.5c-0.7,1.3-1.7,2.3-3,3s-2.8,1-4.6,1H83.9z"/>
		<path class="st0" d="M105.4,30.4V10.7h5.6v19.8H105.4z M116.5,16.2c-0.2-0.3-0.5-0.4-0.9-0.6c-0.4-0.1-0.8-0.2-1.3-0.2
			c-1.1,0-1.9,0.3-2.4,1c-0.6,0.7-0.9,1.6-0.9,2.8l-0.4-5.1c0.5-1.2,1.3-2.1,2.1-2.7c0.9-0.7,1.8-1,2.9-1c0.8,0,1.6,0.1,2.2,0.4
			c0.7,0.3,1.2,0.6,1.7,1.2L116.5,16.2z"/>
		<path class="st0" d="M130,30.7c-2.7,0-4.8-0.8-6.3-2.3c-1.5-1.5-2.2-3.6-2.2-6.4v-3.2c0-2.7,0.7-4.8,2.2-6.3
			c1.5-1.5,3.6-2.2,6.3-2.2s4.8,0.7,6.3,2.2c1.5,1.5,2.2,3.6,2.2,6.3v3.3c0,2.7-0.7,4.8-2.2,6.3C134.8,30,132.7,30.7,130,30.7z
			 M130,25.7c1.1,0,1.9-0.3,2.5-0.9c0.6-0.6,0.9-1.5,0.9-2.6v-3.3c0-1.1-0.3-2-0.9-2.6s-1.4-0.9-2.5-0.9c-1,0-1.9,0.3-2.4,0.9
			c-0.6,0.6-0.9,1.5-0.9,2.6v3.3c0,1.1,0.3,2,0.9,2.6C128.1,25.4,129,25.7,130,25.7z"/>
		<path class="st0" d="M141.8,15.1v-4.5h10.6v4.5H141.8z M143.9,30.4V8c0-1.7,0.4-3,1.2-3.9c0.8-0.9,2-1.3,3.7-1.3h3.6v4.6h-2.2
			c-0.4,0-0.7,0.1-0.9,0.4c-0.2,0.3-0.3,0.7-0.3,1.1v21.5H143.9z"/>
		<path class="st0" d="M155.4,8V2.7h5.2V8H155.4z M155.4,30.4V10.7h5.2v19.8H155.4z"/>
		<path class="st0" d="M163.9,15.1v-4.5h9.7v4.5H163.9z M171,30.5c-1.8,0-3-0.5-3.8-1.4c-0.8-0.9-1.2-2.2-1.2-3.9V4.9h5.2V24
			c0,0.5,0.1,0.8,0.3,1.1s0.5,0.4,0.8,0.4h1.3v5H171z"/>
	</g>
</g>
<g>
	<g>
		<path class="st1" d="M96.3,72.5c-1.7,0-3.3-0.2-4.9-0.5c-1.6-0.3-3.1-0.8-4.5-1.5c-1.4-0.6-2.6-1.4-3.8-2.3l3-5.4
			c1.3,1.1,2.9,1.9,4.6,2.5c1.8,0.6,3.6,0.9,5.4,0.9c2.1,0,3.8-0.4,5-1.1c1.2-0.7,1.8-1.8,1.8-3.1v0c0-1-0.3-1.8-0.9-2.3
			s-1.4-0.9-2.3-1.2c-1-0.3-2-0.5-3.1-0.6c-1.4-0.2-2.7-0.5-4.1-0.8c-1.4-0.3-2.7-0.8-3.8-1.5c-1.2-0.7-2.1-1.6-2.8-2.9
			c-0.7-1.3-1.1-2.9-1.1-5v0c0-3.4,1.1-6,3.3-7.9c2.2-1.9,5.4-2.8,9.5-2.8c1.9,0,3.8,0.3,5.7,0.9c1.9,0.6,3.8,1.5,5.4,2.7l-2.8,5.6
			c-1.3-0.9-2.7-1.7-4.2-2.2c-1.5-0.5-2.9-0.8-4.2-0.8c-2,0-3.6,0.3-4.7,1c-1.1,0.7-1.7,1.6-1.7,2.8v0c0,1.1,0.3,2,1,2.5
			s1.5,1,2.6,1.3s2.2,0.5,3.4,0.8c1.3,0.3,2.7,0.6,4,0.9s2.5,0.9,3.6,1.6s2,1.7,2.6,2.9c0.7,1.2,1,2.8,1,4.8v0
			c0,3.3-1.2,5.9-3.5,7.8C103.7,71.6,100.5,72.5,96.3,72.5z"/>
		<path class="st1" d="M113.1,52.9v-5.6h12.2v5.6H113.1z M122,72.3c-2.2,0-3.8-0.6-4.8-1.7c-1-1.1-1.5-2.8-1.5-4.9V40.1h6.6v24
			c0,0.6,0.1,1.1,0.4,1.4s0.6,0.5,1.1,0.5h1.6v6.3H122z"/>
		<path class="st1" d="M137.8,72.5c-2.6,0-4.6-0.6-6-1.9c-1.3-1.3-2-3.2-2-5.8c0-2.5,0.7-4.3,2.2-5.5c1.5-1.2,3.7-1.8,6.6-1.8h6.2
			l0.3,5h-6.5c-1,0-1.7,0.2-2.2,0.6s-0.7,1-0.7,1.8c0,0.8,0.3,1.4,0.9,1.8s1.6,0.6,2.8,0.6c1.7,0,3-0.2,3.9-0.6
			c0.9-0.4,1.3-1,1.3-1.9l0.5,3.6c-0.1,0.9-0.5,1.7-1.3,2.3c-0.8,0.6-1.7,1.1-2.8,1.4C140.1,72.3,138.9,72.5,137.8,72.5z
			 M144.7,72.1V56.4c0-1.1-0.4-2-1.1-2.7s-1.9-0.9-3.3-0.9c-0.9,0-1.8,0.1-2.8,0.4c-0.9,0.3-1.7,0.7-2.4,1.3l-4.1-4
			c1-1.1,2.3-2,3.9-2.6c1.6-0.6,3.4-0.9,5.4-0.9c3.3,0,5.8,0.8,7.6,2.4c1.8,1.6,2.7,3.9,2.7,6.8v16H144.7z"/>
		<path class="st1" d="M157.1,72.1V37.3h6.6v34.8H157.1z M161,70.4l-0.9-7.2l11.6-15.9h6.9L161,70.4z M172.3,72.1L166,59.3l5.4-3.3
			l8.4,16.1H172.3z"/>
		<path class="st1" d="M193.7,72.5c-3.6,0-6.4-1-8.4-2.9c-2-1.9-3-4.7-3-8.2v-2.8c0-3.7,1-6.6,2.9-8.6c1.9-2,4.6-3,8.1-3
			c3.3,0,5.8,1.2,7.6,3.6c1.8,2.4,2.7,5.8,2.7,10.2v1.6h-17V58h11l-0.1-0.6c-0.2-1.4-0.6-2.5-1.3-3.3c-0.7-0.8-1.7-1.2-2.9-1.2
			c-1.6,0-2.8,0.5-3.7,1.4c-0.9,0.9-1.3,2.3-1.3,4v3.2c0,1.7,0.5,3,1.4,3.9s2.3,1.4,4,1.4c0.9,0,1.7-0.2,2.6-0.5
			c0.9-0.3,1.6-0.8,2.3-1.3l4.3,3.8c-1.3,1.2-2.7,2.1-4.4,2.7C196.9,72.2,195.3,72.5,193.7,72.5z"/>
	</g>
</g>
</svg>
