<?xml version="1.0" standalone="no"?>
<!DOCTYPE svg PUBLIC "-//W3C//DTD SVG 20010904//EN"
 "http://www.w3.org/TR/2001/REC-SVG-20010904/DTD/svg10.dtd">
<svg version="1.0" xmlns="http://www.w3.org/2000/svg"
 width="64.000000pt" height="64.000000pt" viewBox="0 0 64.000000 64.000000"
 preserveAspectRatio="xMidYMid meet">

<g transform="translate(0.000000,64.000000) scale(0.100000,-0.100000)"
fill="#000000" stroke="none">
<path d="M193 527 l-113 -62 0 -144 c0 -125 2 -146 18 -157 9 -7 20 -14 24
-14 4 0 9 64 10 141 l3 142 89 50 90 51 93 -50 93 -49 0 -116 0 -117 -30 -12
c-48 -20 -55 -36 -21 -50 25 -10 34 -9 70 12 l41 23 0 145 0 145 -114 63 c-62
34 -120 62 -127 62 -8 0 -65 -29 -126 -63z"/>
<path d="M238 452 l-68 -37 0 -147 c0 -92 4 -148 10 -148 6 0 10 20 10 45 0
25 2 45 5 45 3 0 50 -25 105 -56 55 -30 107 -54 117 -52 13 3 4 11 -30 29
l-48 25 66 34 65 35 -2 94 -3 93 -68 39 c-38 22 -74 39 -80 39 -7 0 -42 -17
-79 -38z m150 -21 l62 -34 0 -77 0 -78 -66 -36 -66 -37 -64 36 -64 36 0 79 0
78 63 36 c34 19 64 34 67 33 3 -1 33 -17 68 -36z"/>
<path d="M230 121 c0 -24 8 -34 46 -55 43 -24 47 -25 70 -9 14 8 23 17 22 18
-8 8 -127 75 -132 75 -3 0 -6 -13 -6 -29z"/>
</g>
</svg>
