<?xml version="1.0" standalone="no"?>
<!DOCTYPE svg PUBLIC "-//W3C//DTD SVG 20010904//EN"
 "http://www.w3.org/TR/2001/REC-SVG-20010904/DTD/svg10.dtd">
<svg version="1.0" xmlns="http://www.w3.org/2000/svg"
 width="64.000000pt" height="64.000000pt" viewBox="0 0 64.000000 64.000000"
 preserveAspectRatio="xMidYMid meet">

<g transform="translate(0.000000,64.000000) scale(0.100000,-0.100000)"
fill="#000000" stroke="none">
<path d="M0 320 l0 -320 320 0 320 0 0 320 0 320 -320 0 -320 0 0 -320z m270
244 c0 -3 -16 -12 -35 -19 -50 -21 -105 -74 -126 -120 -41 -89 -9 -223 65
-280 44 -33 113 -57 158 -53 20 1 40 -1 44 -5 4 -4 -19 -7 -52 -7 -145 0 -247
102 -248 245 -1 80 20 128 76 182 39 37 118 76 118 57z m213 -130 c42 -60 46
-125 10 -194 -23 -46 -37 -60 -83 -83 -45 -23 -63 -28 -103 -23 -26 3 -55 10
-65 16 -13 7 -4 9 35 4 29 -4 68 -3 88 0 43 8 103 59 121 103 30 70 6 166 -51
211 -14 11 -25 23 -25 27 0 15 46 -24 73 -61z m-180 26 c-76 -18 -120 -79
-110 -153 6 -46 37 -82 92 -108 l40 -19 -33 5 c-100 15 -151 136 -94 223 22
34 71 62 107 61 l30 -1 -32 -8z"/>
</g>
</svg>
